<?xml version="1.0" encoding="UTF-8" standalone="no"?>
<!-- Created with Inkscape (http://www.inkscape.org/) -->

<svg
   width="24.999996mm"
   height="25mm"
   viewBox="0 0 24.999996 25"
   version="1.1"
   id="svg1"
   xmlns:xlink="http://www.w3.org/1999/xlink"
   xmlns="http://www.w3.org/2000/svg"
   xmlns:svg="http://www.w3.org/2000/svg">
  <defs
     id="defs1">
    <linearGradient
       id="linearGradient20">
      <stop
         style="stop-color:#f6f6ee;stop-opacity:1;"
         offset="0.02362205"
         id="stop18" />
      <stop
         style="stop-color:#f6f6ee;stop-opacity:0.4627451;"
         offset="0.17302799"
         id="stop6" />
      <stop
         style="stop-color:#f6f6ee;stop-opacity:0;"
         offset="0.30314961"
         id="stop20" />
    </linearGradient>
    <radialGradient
       xlink:href="#linearGradient20"
       id="radialGradient10-0-7"
       gradientUnits="userSpaceOnUse"
       gradientTransform="matrix(6.6084399,0,0,6.6084399,-1267.238,-1400.4465)"
       cx="222.7854"
       cy="248.94034"
       fx="222.7854"
       fy="248.94034"
       r="3.4808879" />
    <clipPath
       clipPathUnits="userSpaceOnUse"
       id="clipPath67-4-0-7-6-1-4-5-5">
      <rect
         style="fill:#fafaf7;fill-opacity:0;stroke:#fafaf7;stroke-width:0.783238;stroke-linecap:round;stroke-miterlimit:0;stroke-dasharray:none"
         id="rect67-9-4-6-2-05-8-2-1"
         width="353.00726"
         height="143.94814"
         x="690.48053"
         y="802.88538"
         transform="matrix(0.99950604,0.03142743,-0.9922303,0.12441473,0,0)" />
    </clipPath>
  </defs>
  <g
     id="g108-5-5-7-82"
     style="display:inline;fill:#02302b;fill-opacity:1;stroke:#fafaf7;stroke-opacity:1"
     transform="matrix(2.4374384,0,0,2.4374384,-202.88765,-37.136469)">
    <path
       id="path7-9-5"
       style="display:inline;fill:url(#radialGradient10-0-7);fill-opacity:1;stroke:#02302b;stroke-width:0;stroke-opacity:1"
       d="m 215.29222,265.19873 -10.26556,-20.53441 -10.26892,20.53099 a 23.003239,23.003239 0 0 0 10.26892,2.46902 23.003239,23.003239 0 0 0 10.26556,-2.4656 z"
       transform="matrix(0.44594192,0,0,0.44594192,-3.0635853,-93.870216)" />
    <path
       id="path3-1-0-36-3-16-9-0-59-5-0-3-0-9-0-2-4-9-2-9-6-0-0-4"
       clip-path="url(#clipPath67-4-0-7-6-1-4-5-5)"
       style="display:inline;fill:#fafaf7;fill-opacity:1;stroke:#f6f6ee;stroke-width:0;stroke-linecap:round;stroke-miterlimit:0;stroke-opacity:1"
       transform="matrix(0.02796177,-0.01531685,0.22300025,0.48713129,57.719944,-46.281382)"
       d="M 83.432616,149.96335 H 58.670609 L 71.051613,128.51882 Z M -195.00351,141.98707 -209.83653,140.74209 71.051532,128.5188 Z M 26.903164,148.44285 7.6314192,148.22674 71.051712,128.51881 Z M -30.153041,146.9082 -47.87219,146.48155 71.051695,128.51881 Z m -56.626928,-1.65003 -16.055141,-0.63531 173.886864,-16.10405 z m -55.503721,-1.7452 -14.30011,-0.83949 227.635431,-14.15468 z" />
  </g>
</svg>
